<?xml version="1.0" encoding="UTF-8"?>
<svg width="220px" height="349px" viewBox="0 0 220 349" version="1.1" xmlns="http://www.w3.org/2000/svg" xmlns:xlink="http://www.w3.org/1999/xlink">
    <title>volume-up-interface-symbol</title>
    <g id="Page-1" stroke="none" stroke-width="1" fill="none" fill-rule="evenodd">
        <g id="volume-up-interface-symbol" fill="#000000" fill-rule="nonzero">
            <path d="M200.999,0.952 C196.053,0.952 191.77,2.764 188.152,6.378 L93.078,101.453 L18.276,101.453 C13.324,101.453 9.042,103.265 5.426,106.877 C1.809,110.493 0,114.778 0,119.726 L0,229.356 C0,234.305 1.809,238.589 5.426,242.204 C9.045,245.821 13.328,247.631 18.276,247.631 L93.074,247.631 L188.148,342.709 C191.765,346.319 196.048,348.133 200.995,348.133 C205.947,348.133 210.229,346.32 213.845,342.709 C217.462,339.095 219.271,334.808 219.271,329.862 L219.271,19.228 C219.271,14.28 217.462,9.994 213.849,6.378 C210.23,2.764 205.951,0.952 200.999,0.952 Z" id="Path"></path>
        </g>
    </g>
</svg>