<?xml version="1.0" encoding="UTF-8"?>
<svg width="329px" height="349px" viewBox="0 0 329 349" version="1.1" xmlns="http://www.w3.org/2000/svg" xmlns:xlink="http://www.w3.org/1999/xlink">
    <title>volume-up-interface-symbol</title>
    <g id="Page-1" stroke="none" stroke-width="1" fill="none" fill-rule="evenodd">
        <g id="volume-up-interface-symbol" fill="#000000" fill-rule="nonzero">
            <path d="M200.999,0.952 C196.053,0.952 191.77,2.764 188.152,6.378 L93.078,101.453 L18.276,101.453 C13.324,101.453 9.042,103.265 5.426,106.877 C1.809,110.493 0,114.778 0,119.726 L0,229.356 C0,234.305 1.809,238.589 5.426,242.204 C9.045,245.821 13.328,247.631 18.276,247.631 L93.074,247.631 L188.148,342.709 C191.765,346.319 196.048,348.133 200.995,348.133 C205.947,348.133 210.229,346.32 213.845,342.709 C217.462,339.095 219.271,334.808 219.271,329.862 L219.271,19.228 C219.271,14.28 217.462,9.994 213.849,6.378 C210.23,2.764 205.951,0.952 200.999,0.952 Z" id="Path"></path>
            <path d="M316.769,214.936 C324.862,202.469 328.904,189.006 328.904,174.541 C328.904,160.076 324.862,146.549 316.769,133.985 C308.675,121.423 297.978,112.575 284.648,107.434 C282.746,106.485 280.364,106.007 277.509,106.007 C272.565,106.007 268.277,107.769 264.662,111.289 C261.052,114.81 259.235,119.141 259.235,124.279 C259.235,128.276 260.378,131.655 262.667,134.416 C264.95,137.178 267.708,139.558 270.949,141.555 C274.179,143.553 277.417,145.743 280.657,148.122 C283.895,150.502 286.653,153.88 288.935,158.257 C291.211,162.637 292.361,168.061 292.361,174.534 C292.361,181.005 291.218,186.43 288.935,190.81 C286.653,195.191 283.895,198.565 280.657,200.95 C277.417,203.329 274.179,205.519 270.949,207.517 C267.708,209.509 264.95,211.894 262.667,214.649 C260.385,217.414 259.235,220.792 259.235,224.789 C259.235,229.933 261.051,234.259 264.662,237.779 C268.276,241.3 272.564,243.067 277.509,243.067 C280.363,243.067 282.745,242.588 284.648,241.643 C297.978,236.304 308.679,227.403 316.769,214.936 Z" id="Path"></path>
        </g>
    </g>
</svg>